<svg xmlns="http://www.w3.org/2000/svg" xmlns:xlink="http://www.w3.org/1999/xlink" x="0" y="0" width="642.1094360351562" height="432.1094055175781" style="
        width:642.1094360351562px;
        height:432.1094055175781px;
        background: transparent;
        fill: none;
">
        
        
        <svg xmlns="http://www.w3.org/2000/svg" class="role-diagram-draw-area" style="overflow: visible;"><g class="shapes-region" style="stroke: black; fill: none;"><g class="arrow-line"><path class="connection real" stroke-dasharray="" d="  M20,353 L317,353" style="stroke: rgb(0, 0, 0); stroke-opacity: 1; stroke-width: 2; fill: none; fill-opacity: 1;"/><g stroke="rgb(0,0,0)" stroke-opacity="1" transform="matrix(-1,1.2246467991473532e-16,-1.2246467991473532e-16,-1,319.99999999999994,353.00000000000006)" style="stroke: rgb(0, 0, 0); stroke-width: 2;"><path d=" M14.21,-4.28 Q6.45,-0.59 0,0 Q6.45,0.59 14.21,4.28"/></g></g><g class="arrow-line"><path class="connection real" stroke-dasharray="" d="  M40.67,380 L40.67,53" style="stroke: rgb(0, 0, 0); stroke-opacity: 1; stroke-width: 2; fill: none; fill-opacity: 1;"/><g stroke="rgb(0,0,0)" stroke-opacity="1" transform="matrix(3.061616997868383e-16,1,-1,3.061616997868383e-16,40.66666666666663,50)" style="stroke: rgb(0, 0, 0); stroke-width: 2;"><path d=" M14.21,-4.28 Q6.45,-0.59 0,0 Q6.45,0.59 14.21,4.28"/></g></g><g class="arrow-line"><path class="connection real" stroke-dasharray="" d="  M40.7,231.33 C94.7,314.33 235.37,320.67 322.37,324.67" style="stroke: rgb(74, 144, 226); stroke-opacity: 1; stroke-width: 2; fill: none; fill-opacity: 1;"/></g><g class="arrow-line"><path class="connection real" stroke-dasharray="" d="  M39.97,353 L320,353" style="stroke: rgb(208, 0, 0); stroke-opacity: 1; stroke-width: 2; fill: none; fill-opacity: 1;"/></g><g class="arrow-line"><path class="connection real" stroke-dasharray="" d="  M41,174 C98.33,242 236,284.33 320,289.33" style="stroke: rgb(0, 0, 0); stroke-opacity: 1; stroke-width: 2; fill: none; fill-opacity: 1;"/></g><g class="arrow-line"><path class="connection real" stroke-dasharray="" d="  M41,153.33 C75.67,161.33 117,192 119,232" style="stroke: rgb(0, 0, 0); stroke-opacity: 1; stroke-width: 2; fill: none; fill-opacity: 1;"/></g><g class="arrow-line"><path class="connection real" stroke-dasharray="" d="  M119,232 C161.67,212 228.33,226.33 246.33,279" style="stroke: rgb(0, 0, 0); stroke-opacity: 1; stroke-width: 2; fill: none; fill-opacity: 1;"/></g><g class="arrow-line"><path class="connection real" stroke-dasharray="" d="  M246.33,279 C261,260.33 277.33,238 320,238.67" style="stroke: rgb(0, 0, 0); stroke-opacity: 1; stroke-width: 2; fill: none; fill-opacity: 1;"/></g><g class="arrow-line"><path class="connection real" stroke-dasharray="" d="  M109,116.33 C167,147.67 221.33,161.67 320,163.67" style="stroke: rgb(0, 0, 0); stroke-opacity: 1; stroke-width: 2; fill: none; fill-opacity: 1;"/></g><g class="arrow-line"><path class="connection real" stroke-dasharray="7.5 6" d="  M260.67,66 L260.67,353" style="stroke: rgb(0, 0, 0); stroke-opacity: 1; stroke-width: 2; fill: none; fill-opacity: 1;"/></g><g class="arrow-line"><path class="connection real" stroke-dasharray="" d="  M40.33,121.67 C89.67,124.33 220.33,87 320,125" style="stroke: rgb(91, 184, 2); stroke-opacity: 1; stroke-width: 2; fill: none; fill-opacity: 1;"/></g><g class="arrow-line"><path class="connection real" stroke-dasharray="2.25 3.685" d="  M108.67,199.5 L320.3,199.5" style="stroke: rgb(0, 0, 0); stroke-opacity: 1; stroke-width: 2; fill: none; fill-opacity: 1;"/></g><g class="grouped-shape"><g class="arrow-line"><path class="connection real" stroke-dasharray="" d="  M485,121.67 C494.75,122.02 484.69,141.72 494.75,141.25" style="stroke: rgb(0, 0, 0); stroke-width: 1; fill: none; fill-opacity: 1;"/></g><g class="arrow-line"><path class="connection real" stroke-dasharray="" d="  M485,160.83 C494.44,160.6 485.31,141.25 494.75,141.25" style="stroke: rgb(0, 0, 0); stroke-width: 1; fill: none; fill-opacity: 1;"/></g></g><g class="grouped-shape"><g class="arrow-line"><path class="connection real" stroke-dasharray="" d="  M485.69,161.67 C495.44,162 485.37,180.95 495.44,180.5" style="stroke: rgb(0, 0, 0); stroke-width: 1; fill: none; fill-opacity: 1;"/></g><g class="arrow-line"><path class="connection real" stroke-dasharray="" d="  M485.69,199.33 C495.12,199.11 486,180.5 495.44,180.5" style="stroke: rgb(0, 0, 0); stroke-width: 1; fill: none; fill-opacity: 1;"/></g></g><g class="grouped-shape"><g class="arrow-line"><path class="connection real" stroke-dasharray="" d="  M485.87,199.67 C495.62,200.04 485.56,221 495.62,220.5" style="stroke: rgb(0, 0, 0); stroke-width: 1; fill: none; fill-opacity: 1;"/></g><g class="arrow-line"><path class="connection real" stroke-dasharray="" d="  M485.87,241.33 C495.31,241.09 486.19,220.5 495.62,220.5" style="stroke: rgb(0, 0, 0); stroke-width: 1; fill: none; fill-opacity: 1;"/></g></g><g class="grouped-shape"><g class="arrow-line"><path class="connection real" stroke-dasharray="" d="  M486.54,242 C496.29,242.37 486.22,263.41 496.29,262.92" style="stroke: rgb(0, 0, 0); stroke-width: 1; fill: none; fill-opacity: 1;"/></g><g class="arrow-line"><path class="connection real" stroke-dasharray="" d="  M486.54,283.83 C495.98,283.58 486.85,262.92 496.29,262.92" style="stroke: rgb(0, 0, 0); stroke-width: 1; fill: none; fill-opacity: 1;"/></g></g><g class="grouped-shape"><g class="arrow-line"><path class="connection real" stroke-dasharray="" d="  M486.85,285 C496.6,285.34 486.54,304.37 496.6,303.92" style="stroke: rgb(0, 0, 0); stroke-width: 1; fill: none; fill-opacity: 1;"/></g><g class="arrow-line"><path class="connection real" stroke-dasharray="" d="  M486.85,322.83 C496.29,322.61 487.17,303.92 496.6,303.92" style="stroke: rgb(0, 0, 0); stroke-width: 1; fill: none; fill-opacity: 1;"/></g></g><g class="grouped-shape"><g class="arrow-line"><path class="connection real" stroke-dasharray="" d="  M487.27,323.7 C497.02,323.98 486.95,339.89 497.02,339.52" style="stroke: rgb(0, 0, 0); stroke-width: 1; fill: none; fill-opacity: 1;"/></g><g class="arrow-line"><path class="connection real" stroke-dasharray="" d="  M487.27,355.33 C496.71,355.15 487.58,339.52 497.02,339.52" style="stroke: rgb(0, 0, 0); stroke-width: 1; fill: none; fill-opacity: 1;"/></g></g><g class="arrow-line"><path class="connection real" stroke-dasharray="7.5 6" d="  M108,66 L108,353" style="stroke: rgb(0, 0, 0); stroke-opacity: 1; stroke-width: 2; fill: none; fill-opacity: 1;"/></g><g/></g><g/><g/><g/></svg>
        <svg xmlns="http://www.w3.org/2000/svg" xmlns:xlink="http://www.w3.org/1999/xlink" width="640.998291015625" height="430.998291015625" style="width:640.998291015625px;height:430.998291015625px;font-family:Asana-Math, Asana;background:transparent;"><g><g><g><text x="291.545166015625" y="359.88714599609375" style="white-space:pre;stroke:none;fill:rgb(0,0,0);fill-opacity:1;font-size:15px;font-family:&quot;Times New Roman&quot;, Times, serif;font-weight:400;font-style:normal;dominant-baseline:text-before-edge;text-decoration:none solid rgb(0, 0, 0);">time</text></g></g></g><g><g><g><g transform="matrix(1,0,0,1,24.21875,370.9930419921875)"><path transform="matrix(0.017,0,0,-0.017,0,0)" d="M263 689C108 689 29 566 29 324C29 207 50 106 85 57C120 8 176 -20 238 -20C389 -20 465 110 465 366C465 585 400 689 263 689ZM245 654C342 654 381 556 381 316C381 103 343 15 251 15C154 15 113 116 113 360C113 571 150 654 245 654Z" stroke="rgb(0,0,0)" stroke-opacity="1" stroke-width="8" fill="rgb(0,0,0)" fill-opacity="1"></path></g></g></g></g><g><g><g><g><g><g><text x="14.87847900390625" y="28.220489501953125" style="white-space:pre;stroke:none;fill:rgb(0,0,0);fill-opacity:1;font-size:15px;font-family:&quot;Times New Roman&quot;, Times, serif;font-weight:400;font-style:normal;dominant-baseline:text-before-edge;text-decoration:none solid rgb(0, 0, 0);">gradient</text></g></g></g></g></g></g><g><g><g><svg x="328.7413330078125" overflow="visible" y="307.69097900390625" height="31.99652862548828" width="8.49826431274414"><path d=" M 6.27 1.70 c 0.00 -0.06 -0.04 -0.08 -0.08 -0.08 c -0.03 0.00 -0.06 0.01 -0.08 0.02 c -2.55 1.34 -4.65 3.73 -4.65 9.40 v 0.60 h 1.53 v -0.60 c 0.00 -3.23 0.64 -7.03 3.31 -9.06 c 0.12 -0.09 0.13 -0.19 0.13 -0.28 z   M 1.44 11.64 v 8.72 h 1.53 v -8.72 z" style="fill:rgb(0,100,200);fill-opacity:1;stroke-width:1px;stroke:none;stroke-opacity:1;"></path><path d=" M 6.27 30.30 c 0.00 0.06 -0.04 0.08 -0.08 0.08 c -0.03 0.00 -0.06 -0.01 -0.08 -0.02 c -2.55 -1.34 -4.65 -3.73 -4.65 -9.40 v -0.60 h 1.53 v 0.60 c 0.00 3.23 0.64 7.03 3.31 9.06 c 0.12 0.09 0.13 0.19 0.13 0.28 z" style="fill:rgb(0,100,200);fill-opacity:1;stroke-width:1px;stroke:none;stroke-opacity:1;"></path></svg></g><g><g><g><g><g transform="matrix(1,0,0,1,336.388916015625,329.13543701171875)"><path transform="matrix(0.017,0,0,-0.017,0,0)" d="M1060 53C1056 48 1050 45 1043 45C984 45 943 208 933 249C908 349 878 486 878 597C878 631 880 662 887 690L879 696C838 686 801 669 767 648C763 458 635 330 539 194C494 283 447 371 396 458C349 539 297 619 266 704C229 694 196 676 170 652C186 618 193 559 193 489C193 281 127 -22 15 -31C28 -40 42 -44 56 -44C105 -44 142 -22 169 12C215 70 236 421 237 517C314 391 451 193 484 62C487 50 488 38 488 27C488 14 487 2 485 -10C524 -3 556 19 580 46L580 52C580 243 727 356 790 513C802 419 812 324 836 229C859 138 882 52 955 -27L963 -31C1011 -31 1062 3 1060 53Z" stroke="rgb(0,100,200)" stroke-opacity="1" stroke-width="8" fill="rgb(0,100,200)" fill-opacity="1"></path></g></g></g></g><svg xmlns="http://www.w3.org/2000/svg" x="336.388916015625" y="310.685791015625" height="5.998264312744141" width="18.359375"><defs><clipPath id="ccp0.5022213962503272"><rect x="-0.5" y="-0.5" width="18.859375" height="6.498264312744141"></rect></clipPath></defs><g clip-path="url(#ccp0.5022213962503272)"><svg xmlns="http://www.w3.org/2000/svg" x="0" y="0" height="20.390626907348633" width="16.99652862548828"><defs><clipPath id="ccp0.5369445433912268"><rect x="-0.5" y="-0.5" width="17.49652862548828" height="20.890626907348633"></rect></clipPath></defs><g clip-path="url(#ccp0.5369445433912268)"><g><g transform="matrix(1,0,0,1,0,17)"><path transform="matrix(0.017,0,0,-0.017,0,0)" d="M-877 790L1877 790L1877 850L-877 850Z" stroke="rgb(0,100,200)" stroke-opacity="1" stroke-width="8" fill="rgb(0,100,200)" fill-opacity="1"></path></g></g></g></svg><svg xmlns="http://www.w3.org/2000/svg" x="16.9964599609375" y="0" height="20.390626907348633" width="16.99652862548828"><defs><clipPath id="ccp0.9213359549281015"><rect x="-0.5" y="-0.5" width="17.49652862548828" height="20.890626907348633"></rect></clipPath></defs><g clip-path="url(#ccp0.9213359549281015)"><g><g transform="matrix(1,0,0,1,0,17)"><path transform="matrix(0.017,0,0,-0.017,0,0)" d="M-877 790L1877 790L1877 850L-877 850Z" stroke="rgb(0,100,200)" stroke-opacity="1" stroke-width="8" fill="rgb(0,100,200)" fill-opacity="1"></path></g></g></g></svg></g></svg></g><g><g transform="matrix(1,0,0,1,355.59033203125,329.13543701171875)"><path transform="matrix(0.017,0,0,-0.017,0,0)" d="M204 123C177 114 159 108 106 93C99 17 74 -48 16 -144L30 -155L71 -136C152 -31 190 32 218 109Z" stroke="rgb(0,100,200)" stroke-opacity="1" stroke-width="8" fill="rgb(0,100,200)" fill-opacity="1"></path></g></g><g><g><g><g><g transform="matrix(1,0,0,1,364.0625,329.13543701171875)"><path transform="matrix(0.017,0,0,-0.017,0,0)" d="M237 -16C473 -16 572 316 576 504C578 618 546 702 419 702C159 702 72 412 69 199C67 80 101 -16 237 -16ZM401 676C536 676 506 491 485 381L169 381C194 485 272 676 401 676ZM253 13C102 13 147 261 163 349L479 349C454 237 396 13 253 13Z" stroke="rgb(0,100,200)" stroke-opacity="1" stroke-width="8" fill="rgb(0,100,200)" fill-opacity="1"></path></g></g></g></g><svg xmlns="http://www.w3.org/2000/svg" x="364.0625" y="310.685791015625" height="5.998264312744141" width="10.425347328186035"><defs><clipPath id="ccp0.889622662232177"><rect x="-0.5" y="-0.5" width="10.925347328186035" height="6.498264312744141"></rect></clipPath></defs><g clip-path="url(#ccp0.889622662232177)"><svg xmlns="http://www.w3.org/2000/svg" x="0" y="0" height="20.390626907348633" width="16.99652862548828"><defs><clipPath id="ccp0.8575298298922234"><rect x="-0.5" y="-0.5" width="17.49652862548828" height="20.890626907348633"></rect></clipPath></defs><g clip-path="url(#ccp0.8575298298922234)"><g><g transform="matrix(1,0,0,1,0,17)"><path transform="matrix(0.017,0,0,-0.017,0,0)" d="M-877 790L1877 790L1877 850L-877 850Z" stroke="rgb(0,100,200)" stroke-opacity="1" stroke-width="8" fill="rgb(0,100,200)" fill-opacity="1"></path></g></g></g></svg></g></svg></g><g><g><g><g><g transform="matrix(1,0,0,1,375.8333740234375,334.6083129882812)"><path transform="matrix(0.0119,0,0,-0.0119,0,0)" d="M125 390L69 107C68 99 56 61 56 31C56 6 67 -9 86 -9C121 -9 156 11 234 74L265 99L255 117L210 86C181 66 161 56 150 56C141 56 136 64 136 76C136 102 150 183 179 328L192 390L299 390L310 440C272 436 238 434 200 434C216 528 227 577 245 631L234 646C214 634 187 622 156 610L131 440C87 419 61 408 43 403L41 390Z" stroke="rgb(0,100,200)" stroke-opacity="1" stroke-width="8" fill="rgb(0,100,200)" fill-opacity="1"></path></g></g></g></g></g><g><g transform="matrix(1,0,0,1,380.798583984375,329.13543701171875)"><path transform="matrix(0.017,0,0,-0.017,0,0)" d="M204 123C177 114 159 108 106 93C99 17 74 -48 16 -144L30 -155L71 -136C152 -31 190 32 218 109Z" stroke="rgb(0,100,200)" stroke-opacity="1" stroke-width="8" fill="rgb(0,100,200)" fill-opacity="1"></path></g></g><g><g><g><g><text x="388.4288330078125" y="316.0242919921875" style="white-space:pre;stroke:none;fill:rgb(0,100,200);fill-opacity:1;font-size:15px;font-family:&quot;Times New Roman&quot;, Times, serif;font-weight:400;font-style:normal;dominant-baseline:text-before-edge;text-decoration:none solid rgb(0, 100, 200);">mean-field</text></g></g></g></g><g><svg x="451.7100830078125" overflow="visible" y="307.69097900390625" height="31.99652862548828" width="8.49826431274414"><path d=" M 1.75 1.70 c 0.00 -0.06 0.04 -0.08 0.08 -0.08 c 0.03 0.00 0.06 0.01 0.08 0.02 c 2.55 1.34 4.65 3.73 4.65 9.40 v 0.60 h -1.53 v -0.60 c 0.00 -3.23 -0.64 -7.03 -3.31 -9.06 c -0.12 -0.09 -0.13 -0.19 -0.13 -0.28 z  M 6.58 11.64 v 8.72 h -1.53 v -8.72 z" style="fill:rgb(0,100,200);fill-opacity:1;stroke-width:1px;stroke:none;stroke-opacity:1;"></path><path d=" M 1.75 30.30 c 0.00 0.06 0.04 0.08 0.08 0.08 c 0.03 0.00 0.06 -0.01 0.08 -0.02 c 2.55 -1.34 4.65 -3.73 4.65 -9.40 v -0.60 h -1.53 v 0.60 c 0.00 3.23 -0.64 7.03 -3.31 9.06 c -0.12 0.09 -0.13 0.19 -0.13 0.28 z" style="fill:rgb(0,100,200);fill-opacity:1;stroke-width:1px;stroke:none;stroke-opacity:1;"></path></svg></g></g></g><g><g><g><g transform="matrix(1,0,0,1,256.21533203125,372.998291015625)"><path transform="matrix(0.017,0,0,-0.017,0,0)" d="M125 390L69 107C68 99 56 61 56 31C56 6 67 -9 86 -9C121 -9 156 11 234 74L265 99L255 117L210 86C181 66 161 56 150 56C141 56 136 64 136 76C136 102 150 183 179 328L192 390L299 390L310 440C272 436 238 434 200 434C216 528 227 577 245 631L234 646C214 634 187 622 156 610L131 440C87 419 61 408 43 403L41 390Z" stroke="rgb(0,0,0)" stroke-opacity="1" stroke-width="8" fill="rgb(0,0,0)" fill-opacity="1"></path></g></g></g></g><g><g><g><svg x="328.7413330078125" overflow="visible" y="339.85675048828125" height="30.998266220092773" width="8.49826431274414"><path d=" M 6.27 1.70 c 0.00 -0.06 -0.04 -0.08 -0.08 -0.08 c -0.03 0.00 -0.06 0.01 -0.08 0.02 c -2.55 1.34 -4.65 3.73 -4.65 9.40 v 0.60 h 1.53 v -0.60 c 0.00 -3.23 0.64 -7.03 3.31 -9.06 c 0.12 -0.09 0.13 -0.19 0.13 -0.28 z   M 1.44 11.64 v 7.72 h 1.53 v -7.72 z" style="fill:rgb(0,0,0);fill-opacity:1;stroke-width:1px;stroke:none;stroke-opacity:1;"></path><path d=" M 6.27 29.30 c 0.00 0.06 -0.04 0.08 -0.08 0.08 c -0.03 0.00 -0.06 -0.01 -0.08 -0.02 c -2.55 -1.34 -4.65 -3.73 -4.65 -9.40 v -0.60 h 1.53 v 0.60 c 0.00 3.23 0.64 7.03 3.31 9.06 c 0.12 0.09 0.13 0.19 0.13 0.28 z" style="fill:rgb(0,0,0);fill-opacity:1;stroke-width:1px;stroke:none;stroke-opacity:1;"></path></svg></g><g><g><g><g><g transform="matrix(1,0,0,1,336.388916015625,361.30120849609375)"><path transform="matrix(0.017,0,0,-0.017,0,0)" d="M1060 53C1056 48 1050 45 1043 45C984 45 943 208 933 249C908 349 878 486 878 597C878 631 880 662 887 690L879 696C838 686 801 669 767 648C763 458 635 330 539 194C494 283 447 371 396 458C349 539 297 619 266 704C229 694 196 676 170 652C186 618 193 559 193 489C193 281 127 -22 15 -31C28 -40 42 -44 56 -44C105 -44 142 -22 169 12C215 70 236 421 237 517C314 391 451 193 484 62C487 50 488 38 488 27C488 14 487 2 485 -10C524 -3 556 19 580 46L580 52C580 243 727 356 790 513C802 419 812 324 836 229C859 138 882 52 955 -27L963 -31C1011 -31 1062 3 1060 53Z" stroke="rgb(0,0,0)" stroke-opacity="1" stroke-width="8" fill="rgb(0,0,0)" fill-opacity="1"></path></g></g></g></g><svg xmlns="http://www.w3.org/2000/svg" x="336.388916015625" y="342.8515625" height="5.998264312744141" width="18.359375"><defs><clipPath id="ccp0.5059895646257075"><rect x="-0.5" y="-0.5" width="18.859375" height="6.498264312744141"></rect></clipPath></defs><g clip-path="url(#ccp0.5059895646257075)"><svg xmlns="http://www.w3.org/2000/svg" x="0" y="0" height="20.390626907348633" width="16.99652862548828"><defs><clipPath id="ccp0.15635748459741006"><rect x="-0.5" y="-0.5" width="17.49652862548828" height="20.890626907348633"></rect></clipPath></defs><g clip-path="url(#ccp0.15635748459741006)"><g><g transform="matrix(1,0,0,1,0,17)"><path transform="matrix(0.017,0,0,-0.017,0,0)" d="M-877 790L1877 790L1877 850L-877 850Z" stroke="rgb(0,0,0)" stroke-opacity="1" stroke-width="8" fill="rgb(0,0,0)" fill-opacity="1"></path></g></g></g></svg><svg xmlns="http://www.w3.org/2000/svg" x="16.9964599609375" y="0" height="20.390626907348633" width="16.99652862548828"><defs><clipPath id="ccp0.8584183333579833"><rect x="-0.5" y="-0.5" width="17.49652862548828" height="20.890626907348633"></rect></clipPath></defs><g clip-path="url(#ccp0.8584183333579833)"><g><g transform="matrix(1,0,0,1,0,17)"><path transform="matrix(0.017,0,0,-0.017,0,0)" d="M-877 790L1877 790L1877 850L-877 850Z" stroke="rgb(0,0,0)" stroke-opacity="1" stroke-width="8" fill="rgb(0,0,0)" fill-opacity="1"></path></g></g></g></svg></g></svg></g><g><g transform="matrix(1,0,0,1,355.59033203125,361.30120849609375)"><path transform="matrix(0.017,0,0,-0.017,0,0)" d="M204 123C177 114 159 108 106 93C99 17 74 -48 16 -144L30 -155L71 -136C152 -31 190 32 218 109Z" stroke="rgb(0,0,0)" stroke-opacity="1" stroke-width="8" fill="rgb(0,0,0)" fill-opacity="1"></path></g></g><g><g transform="matrix(1,0,0,1,363.220458984375,361.30120849609375)"><path transform="matrix(0.017,0,0,-0.017,0,0)" d="M237 -16C473 -16 572 316 576 504C578 618 546 702 419 702C159 702 72 412 69 199C67 80 101 -16 237 -16ZM401 676C536 676 506 491 485 381L169 381C194 485 272 676 401 676ZM253 13C102 13 147 261 163 349L479 349C454 237 396 13 253 13Z" stroke="rgb(0,0,0)" stroke-opacity="1" stroke-width="8" fill="rgb(0,0,0)" fill-opacity="1"></path></g></g><g><g><g><g><g transform="matrix(1,0,0,1,374.1492919921875,364.8557495117187)"><path transform="matrix(0.0119,0,0,-0.0119,0,0)" d="M168 267L37 213L32 204L68 153L78 153L184 241L202 99L212 95L280 121L280 131L212 253L350 233L359 241L359 303L353 307L214 283L283 408L280 423L218 442L209 438L183 295L88 393L78 393L34 341L37 331Z" stroke="rgb(0,0,0)" stroke-opacity="1" stroke-width="8" fill="rgb(0,0,0)" fill-opacity="1"></path></g></g></g></g></g><g><g transform="matrix(1,0,0,1,379.782958984375,361.30120849609375)"><path transform="matrix(0.017,0,0,-0.017,0,0)" d="M204 123C177 114 159 108 106 93C99 17 74 -48 16 -144L30 -155L71 -136C152 -31 190 32 218 109Z" stroke="rgb(0,0,0)" stroke-opacity="1" stroke-width="8" fill="rgb(0,0,0)" fill-opacity="1"></path></g></g><g><g><g><g><text x="387.4132080078125" y="348.19012451171875" style="white-space:pre;stroke:none;fill:rgb(0,0,0);fill-opacity:1;font-size:15px;font-family:&quot;Times New Roman&quot;, Times, serif;font-weight:400;font-style:normal;dominant-baseline:text-before-edge;text-decoration:none solid rgb(0, 0, 0);">mean-field</text></g></g></g></g><g><svg x="450.6944580078125" overflow="visible" y="339.85675048828125" height="30.998266220092773" width="8.49826431274414"><path d=" M 1.75 1.70 c 0.00 -0.06 0.04 -0.08 0.08 -0.08 c 0.03 0.00 0.06 0.01 0.08 0.02 c 2.55 1.34 4.65 3.73 4.65 9.40 v 0.60 h -1.53 v -0.60 c 0.00 -3.23 -0.64 -7.03 -3.31 -9.06 c -0.12 -0.09 -0.13 -0.19 -0.13 -0.28 z  M 6.58 11.64 v 7.72 h -1.53 v -7.72 z" style="fill:rgb(0,0,0);fill-opacity:1;stroke-width:1px;stroke:none;stroke-opacity:1;"></path><path d=" M 1.75 29.30 c 0.00 0.06 0.04 0.08 0.08 0.08 c 0.03 0.00 0.06 -0.01 0.08 -0.02 c 2.55 -1.34 4.65 -3.73 4.65 -9.40 v -0.60 h -1.53 v 0.60 c 0.00 3.23 -0.64 7.03 -3.31 9.06 c -0.12 0.09 -0.13 0.19 -0.13 0.28 z" style="fill:rgb(0,0,0);fill-opacity:1;stroke-width:1px;stroke:none;stroke-opacity:1;"></path></svg></g></g></g><g><g><g><svg x="328.7413330078125" overflow="visible" y="271.69268798828125" height="31.99652862548828" width="8.49826431274414"><path d=" M 6.27 1.70 c 0.00 -0.06 -0.04 -0.08 -0.08 -0.08 c -0.03 0.00 -0.06 0.01 -0.08 0.02 c -2.55 1.34 -4.65 3.73 -4.65 9.40 v 0.60 h 1.53 v -0.60 c 0.00 -3.23 0.64 -7.03 3.31 -9.06 c 0.12 -0.09 0.13 -0.19 0.13 -0.28 z   M 1.44 11.64 v 8.72 h 1.53 v -8.72 z" style="fill:rgb(0,0,0);fill-opacity:1;stroke-width:1px;stroke:none;stroke-opacity:1;"></path><path d=" M 6.27 30.30 c 0.00 0.06 -0.04 0.08 -0.08 0.08 c -0.03 0.00 -0.06 -0.01 -0.08 -0.02 c -2.55 -1.34 -4.65 -3.73 -4.65 -9.40 v -0.60 h 1.53 v 0.60 c 0.00 3.23 0.64 7.03 3.31 9.06 c 0.12 0.09 0.13 0.19 0.13 0.28 z" style="fill:rgb(0,0,0);fill-opacity:1;stroke-width:1px;stroke:none;stroke-opacity:1;"></path></svg></g><g><g transform="matrix(1,0,0,1,335.546875,293.13714599609375)"><path transform="matrix(0.017,0,0,-0.017,0,0)" d="M1060 53C1056 48 1050 45 1043 45C984 45 943 208 933 249C908 349 878 486 878 597C878 631 880 662 887 690L879 696C838 686 801 669 767 648C763 458 635 330 539 194C494 283 447 371 396 458C349 539 297 619 266 704C229 694 196 676 170 652C186 618 193 559 193 489C193 281 127 -22 15 -31C28 -40 42 -44 56 -44C105 -44 142 -22 169 12C215 70 236 421 237 517C314 391 451 193 484 62C487 50 488 38 488 27C488 14 487 2 485 -10C524 -3 556 19 580 46L580 52C580 243 727 356 790 513C802 419 812 324 836 229C859 138 882 52 955 -27L963 -31C1011 -31 1062 3 1060 53Z" stroke="rgb(0,0,0)" stroke-opacity="1" stroke-width="8" fill="rgb(0,0,0)" fill-opacity="1"></path></g></g><g><g><g><g><g transform="matrix(1,0,0,1,354.87841796875,286.9867919921875)"><path transform="matrix(0.0119,0,0,-0.0119,0,0)" d="M146 266C146 526 243 632 301 700L282 726C225 675 60 542 60 266C60 159 85 58 133 -32C168 -99 200 -138 282 -215L301 -194C255 -137 146 -15 146 266Z" stroke="rgb(0,0,0)" stroke-opacity="1" stroke-width="8" fill="rgb(0,0,0)" fill-opacity="1"></path></g></g><g><g transform="matrix(1,0,0,1,358.828125,286.9867919921875)"><path transform="matrix(0.0119,0,0,-0.0119,0,0)" d="M34 388L41 368L73 389C110 412 113 414 120 414C130 414 138 404 138 391C138 384 134 361 130 347L64 107C56 76 51 49 51 30C51 6 62 -9 81 -9C107 -9 143 12 241 85L231 103L205 86C176 67 153 56 144 56C137 56 131 66 131 76C131 86 133 95 138 116L215 420C219 437 221 448 221 456C221 473 212 482 196 482C174 482 137 461 62 408ZM228 712C199 712 170 679 170 645C170 620 185 604 209 604C240 604 264 633 264 671C264 695 249 712 228 712Z" stroke="rgb(0,0,0)" stroke-opacity="1" stroke-width="8" fill="rgb(0,0,0)" fill-opacity="1"></path></g></g><g><g transform="matrix(1,0,0,1,362.126708984375,286.9867919921875)"><path transform="matrix(0.0119,0,0,-0.0119,0,0)" d="M51 726L32 700C87 636 187 526 187 266C187 -10 83 -131 32 -194L51 -215C104 -165 273 -23 273 265C273 542 108 675 51 726Z" stroke="rgb(0,0,0)" stroke-opacity="1" stroke-width="8" fill="rgb(0,0,0)" fill-opacity="1"></path></g></g></g></g></g><g><g transform="matrix(1,0,0,1,367.092041015625,293.13714599609375)"><path transform="matrix(0.017,0,0,-0.017,0,0)" d="M204 123C177 114 159 108 106 93C99 17 74 -48 16 -144L30 -155L71 -136C152 -31 190 32 218 109Z" stroke="rgb(0,0,0)" stroke-opacity="1" stroke-width="8" fill="rgb(0,0,0)" fill-opacity="1"></path></g></g><g><g><g><g><g transform="matrix(1,0,0,1,375.564208984375,293.13714599609375)"><path transform="matrix(0.017,0,0,-0.017,0,0)" d="M237 -16C473 -16 572 316 576 504C578 618 546 702 419 702C159 702 72 412 69 199C67 80 101 -16 237 -16ZM401 676C536 676 506 491 485 381L169 381C194 485 272 676 401 676ZM253 13C102 13 147 261 163 349L479 349C454 237 396 13 253 13Z" stroke="rgb(0,0,0)" stroke-opacity="1" stroke-width="8" fill="rgb(0,0,0)" fill-opacity="1"></path></g></g></g></g><svg xmlns="http://www.w3.org/2000/svg" x="375.564208984375" y="274.6875" height="5.998264312744141" width="10.425347328186035"><defs><clipPath id="ccp0.41187897943720997"><rect x="-0.5" y="-0.5" width="10.925347328186035" height="6.498264312744141"></rect></clipPath></defs><g clip-path="url(#ccp0.41187897943720997)"><svg xmlns="http://www.w3.org/2000/svg" x="0" y="0" height="20.390626907348633" width="16.99652862548828"><defs><clipPath id="ccp0.45851469846703763"><rect x="-0.5" y="-0.5" width="17.49652862548828" height="20.890626907348633"></rect></clipPath></defs><g clip-path="url(#ccp0.45851469846703763)"><g><g transform="matrix(1,0,0,1,0,17)"><path transform="matrix(0.017,0,0,-0.017,0,0)" d="M-877 790L1877 790L1877 850L-877 850Z" stroke="rgb(0,0,0)" stroke-opacity="1" stroke-width="8" fill="rgb(0,0,0)" fill-opacity="1"></path></g></g></g></svg></g></svg></g><g><g><g><g><g transform="matrix(1,0,0,1,387.3350830078125,298.6100830078125)"><path transform="matrix(0.0119,0,0,-0.0119,0,0)" d="M125 390L69 107C68 99 56 61 56 31C56 6 67 -9 86 -9C121 -9 156 11 234 74L265 99L255 117L210 86C181 66 161 56 150 56C141 56 136 64 136 76C136 102 150 183 179 328L192 390L299 390L310 440C272 436 238 434 200 434C216 528 227 577 245 631L234 646C214 634 187 622 156 610L131 440C87 419 61 408 43 403L41 390Z" stroke="rgb(0,0,0)" stroke-opacity="1" stroke-width="8" fill="rgb(0,0,0)" fill-opacity="1"></path></g></g></g></g></g><g><g transform="matrix(1,0,0,1,392.3004150390625,293.13714599609375)"><path transform="matrix(0.017,0,0,-0.017,0,0)" d="M204 123C177 114 159 108 106 93C99 17 74 -48 16 -144L30 -155L71 -136C152 -31 190 32 218 109Z" stroke="rgb(0,0,0)" stroke-opacity="1" stroke-width="8" fill="rgb(0,0,0)" fill-opacity="1"></path></g></g><g><g><g><g><text x="399.9305419921875" y="280.02606201171875" style="white-space:pre;stroke:none;fill:rgb(0,0,0);fill-opacity:1;font-size:15px;font-family:&quot;Times New Roman&quot;, Times, serif;font-weight:400;font-style:normal;dominant-baseline:text-before-edge;text-decoration:none solid rgb(0, 0, 0);">mean-field</text></g></g></g></g><g><svg x="463.2117919921875" overflow="visible" y="271.69268798828125" height="31.99652862548828" width="8.49826431274414"><path d=" M 1.75 1.70 c 0.00 -0.06 0.04 -0.08 0.08 -0.08 c 0.03 0.00 0.06 0.01 0.08 0.02 c 2.55 1.34 4.65 3.73 4.65 9.40 v 0.60 h -1.53 v -0.60 c 0.00 -3.23 -0.64 -7.03 -3.31 -9.06 c -0.12 -0.09 -0.13 -0.19 -0.13 -0.28 z  M 6.58 11.64 v 8.72 h -1.53 v -8.72 z" style="fill:rgb(0,0,0);fill-opacity:1;stroke-width:1px;stroke:none;stroke-opacity:1;"></path><path d=" M 1.75 30.30 c 0.00 0.06 0.04 0.08 0.08 0.08 c 0.03 0.00 0.06 -0.01 0.08 -0.02 c 2.55 -1.34 4.65 -3.73 4.65 -9.40 v -0.60 h -1.53 v 0.60 c 0.00 3.23 -0.64 7.03 -3.31 9.06 c -0.12 0.09 -0.13 0.19 -0.13 0.28 z" style="fill:rgb(0,0,0);fill-opacity:1;stroke-width:1px;stroke:none;stroke-opacity:1;"></path></svg></g></g></g><g><g><g><svg x="328.7413330078125" overflow="visible" y="229.6961669921875" height="26.99652862548828" width="8.49826431274414"><path d=" M 6.27 1.70 c 0.00 -0.06 -0.04 -0.08 -0.08 -0.08 c -0.03 0.00 -0.06 0.01 -0.08 0.02 c -2.55 1.34 -4.65 3.73 -4.65 9.40 v 0.60 h 1.53 v -0.60 c 0.00 -3.23 0.64 -7.03 3.31 -9.06 c 0.12 -0.09 0.13 -0.19 0.13 -0.28 z   M 1.44 11.64 v 3.72 h 1.53 v -3.72 z" style="fill:rgb(0,0,0);fill-opacity:1;stroke-width:1px;stroke:none;stroke-opacity:1;"></path><path d=" M 6.27 25.30 c 0.00 0.06 -0.04 0.08 -0.08 0.08 c -0.03 0.00 -0.06 -0.01 -0.08 -0.02 c -2.55 -1.34 -4.65 -3.73 -4.65 -9.40 v -0.60 h 1.53 v 0.60 c 0.00 3.23 0.64 7.03 3.31 9.06 c 0.12 0.09 0.13 0.19 0.13 0.28 z" style="fill:rgb(0,0,0);fill-opacity:1;stroke-width:1px;stroke:none;stroke-opacity:1;"></path></svg></g><g><g transform="matrix(1,0,0,1,335.546875,247.138916015625)"><path transform="matrix(0.017,0,0,-0.017,0,0)" d="M1060 53C1056 48 1050 45 1043 45C984 45 943 208 933 249C908 349 878 486 878 597C878 631 880 662 887 690L879 696C838 686 801 669 767 648C763 458 635 330 539 194C494 283 447 371 396 458C349 539 297 619 266 704C229 694 196 676 170 652C186 618 193 559 193 489C193 281 127 -22 15 -31C28 -40 42 -44 56 -44C105 -44 142 -22 169 12C215 70 236 421 237 517C314 391 451 193 484 62C487 50 488 38 488 27C488 14 487 2 485 -10C524 -3 556 19 580 46L580 52C580 243 727 356 790 513C802 419 812 324 836 229C859 138 882 52 955 -27L963 -31C1011 -31 1062 3 1060 53Z" stroke="rgb(0,0,0)" stroke-opacity="1" stroke-width="8" fill="rgb(0,0,0)" fill-opacity="1"></path></g></g><g><g><g><g><g transform="matrix(1,0,0,1,354.87841796875,240.98856201171876)"><path transform="matrix(0.0119,0,0,-0.0119,0,0)" d="M146 266C146 526 243 632 301 700L282 726C225 675 60 542 60 266C60 159 85 58 133 -32C168 -99 200 -138 282 -215L301 -194C255 -137 146 -15 146 266Z" stroke="rgb(0,0,0)" stroke-opacity="1" stroke-width="8" fill="rgb(0,0,0)" fill-opacity="1"></path></g></g><g><g transform="matrix(1,0,0,1,358.828125,240.98856201171876)"><path transform="matrix(0.0119,0,0,-0.0119,0,0)" d="M34 388L41 368L73 389C110 412 113 414 120 414C130 414 138 404 138 391C138 384 134 361 130 347L64 107C56 76 51 49 51 30C51 6 62 -9 81 -9C107 -9 143 12 241 85L231 103L205 86C176 67 153 56 144 56C137 56 131 66 131 76C131 86 133 95 138 116L215 420C219 437 221 448 221 456C221 473 212 482 196 482C174 482 137 461 62 408ZM228 712C199 712 170 679 170 645C170 620 185 604 209 604C240 604 264 633 264 671C264 695 249 712 228 712Z" stroke="rgb(0,0,0)" stroke-opacity="1" stroke-width="8" fill="rgb(0,0,0)" fill-opacity="1"></path></g></g><g><g transform="matrix(1,0,0,1,362.126708984375,240.98856201171876)"><path transform="matrix(0.0119,0,0,-0.0119,0,0)" d="M51 726L32 700C87 636 187 526 187 266C187 -10 83 -131 32 -194L51 -215C104 -165 273 -23 273 265C273 542 108 675 51 726Z" stroke="rgb(0,0,0)" stroke-opacity="1" stroke-width="8" fill="rgb(0,0,0)" fill-opacity="1"></path></g></g></g></g></g><g><g transform="matrix(1,0,0,1,367.092041015625,247.138916015625)"><path transform="matrix(0.017,0,0,-0.017,0,0)" d="M204 123C177 114 159 108 106 93C99 17 74 -48 16 -144L30 -155L71 -136C152 -31 190 32 218 109Z" stroke="rgb(0,0,0)" stroke-opacity="1" stroke-width="8" fill="rgb(0,0,0)" fill-opacity="1"></path></g></g><g><g transform="matrix(1,0,0,1,374.72216796875,247.138916015625)"><path transform="matrix(0.017,0,0,-0.017,0,0)" d="M237 -16C473 -16 572 316 576 504C578 618 546 702 419 702C159 702 72 412 69 199C67 80 101 -16 237 -16ZM401 676C536 676 506 491 485 381L169 381C194 485 272 676 401 676ZM253 13C102 13 147 261 163 349L479 349C454 237 396 13 253 13Z" stroke="rgb(0,0,0)" stroke-opacity="1" stroke-width="8" fill="rgb(0,0,0)" fill-opacity="1"></path></g></g><g><g><g><g><g transform="matrix(1,0,0,1,386.1197509765625,240.84964599609376)"><path transform="matrix(0.0119,0,0,-0.0119,0,0)" d="M146 266C146 526 243 632 301 700L282 726C225 675 60 542 60 266C60 159 85 58 133 -32C168 -99 200 -138 282 -215L301 -194C255 -137 146 -15 146 266Z" stroke="rgb(0,0,0)" stroke-opacity="1" stroke-width="8" fill="rgb(0,0,0)" fill-opacity="1"></path></g></g><g><g transform="matrix(1,0,0,1,390.0694580078125,240.84964599609376)"><path transform="matrix(0.0119,0,0,-0.0119,0,0)" d="M34 388L41 368L73 389C110 412 113 414 120 414C130 414 138 404 138 391C138 384 134 361 130 347L64 107C56 76 51 49 51 30C51 6 62 -9 81 -9C107 -9 143 12 241 85L231 103L205 86C176 67 153 56 144 56C137 56 131 66 131 76C131 86 133 95 138 116L215 420C219 437 221 448 221 456C221 473 212 482 196 482C174 482 137 461 62 408ZM228 712C199 712 170 679 170 645C170 620 185 604 209 604C240 604 264 633 264 671C264 695 249 712 228 712Z" stroke="rgb(0,0,0)" stroke-opacity="1" stroke-width="8" fill="rgb(0,0,0)" fill-opacity="1"></path></g></g><g><g transform="matrix(1,0,0,1,393.3680419921875,240.84964599609376)"><path transform="matrix(0.0119,0,0,-0.0119,0,0)" d="M51 726L32 700C87 636 187 526 187 266C187 -10 83 -131 32 -194L51 -215C104 -165 273 -23 273 265C273 542 108 675 51 726Z" stroke="rgb(0,0,0)" stroke-opacity="1" stroke-width="8" fill="rgb(0,0,0)" fill-opacity="1"></path></g></g></g></g><g><g><g><g transform="matrix(1,0,0,1,385.6510009765625,251.3444580078125)"><path transform="matrix(0.0119,0,0,-0.0119,0,0)" d="M125 390L69 107C68 99 56 61 56 31C56 6 67 -9 86 -9C121 -9 156 11 234 74L265 99L255 117L210 86C181 66 161 56 150 56C141 56 136 64 136 76C136 102 150 183 179 328L192 390L299 390L310 440C272 436 238 434 200 434C216 528 227 577 245 631L234 646C214 634 187 622 156 610L131 440C87 419 61 408 43 403L41 390Z" stroke="rgb(0,0,0)" stroke-opacity="1" stroke-width="8" fill="rgb(0,0,0)" fill-opacity="1"></path></g></g></g></g></g><g><g transform="matrix(1,0,0,1,398.3333740234375,247.138916015625)"><path transform="matrix(0.017,0,0,-0.017,0,0)" d="M204 123C177 114 159 108 106 93C99 17 74 -48 16 -144L30 -155L71 -136C152 -31 190 32 218 109Z" stroke="rgb(0,0,0)" stroke-opacity="1" stroke-width="8" fill="rgb(0,0,0)" fill-opacity="1"></path></g></g><g><g><g><g><text x="405.9635009765625" y="234.02777099609375" style="white-space:pre;stroke:none;fill:rgb(0,0,0);fill-opacity:1;font-size:15px;font-family:&quot;Times New Roman&quot;, Times, serif;font-weight:400;font-style:normal;dominant-baseline:text-before-edge;text-decoration:none solid rgb(0, 0, 0);">mean-field</text></g></g></g></g><g><svg x="469.2447509765625" overflow="visible" y="229.6961669921875" height="26.99652862548828" width="8.49826431274414"><path d=" M 1.75 1.70 c 0.00 -0.06 0.04 -0.08 0.08 -0.08 c 0.03 0.00 0.06 0.01 0.08 0.02 c 2.55 1.34 4.65 3.73 4.65 9.40 v 0.60 h -1.53 v -0.60 c 0.00 -3.23 -0.64 -7.03 -3.31 -9.06 c -0.12 -0.09 -0.13 -0.19 -0.13 -0.28 z  M 6.58 11.64 v 3.72 h -1.53 v -3.72 z" style="fill:rgb(0,0,0);fill-opacity:1;stroke-width:1px;stroke:none;stroke-opacity:1;"></path><path d=" M 1.75 25.30 c 0.00 0.06 0.04 0.08 0.08 0.08 c 0.03 0.00 0.06 -0.01 0.08 -0.02 c 2.55 -1.34 4.65 -3.73 4.65 -9.40 v -0.60 h -1.53 v 0.60 c 0.00 3.23 -0.64 7.03 -3.31 9.06 c -0.12 0.09 -0.13 0.19 -0.13 0.28 z" style="fill:rgb(0,0,0);fill-opacity:1;stroke-width:1px;stroke:none;stroke-opacity:1;"></path></svg></g></g></g><g><g><g><g transform="matrix(1,0,0,1,91.54510498046875,373.66668701171875)"><path transform="matrix(0.017,0,0,-0.017,0,0)" d="M125 390L69 107C68 99 56 61 56 31C56 6 67 -9 86 -9C121 -9 156 11 234 74L265 99L255 117L210 86C181 66 161 56 150 56C141 56 136 64 136 76C136 102 150 183 179 328L192 390L299 390L310 440C272 436 238 434 200 434C216 528 227 577 245 631L234 646C214 634 187 622 156 610L131 440C87 419 61 408 43 403L41 390Z" stroke="rgb(0,0,0)" stroke-opacity="1" stroke-width="8" fill="rgb(0,0,0)" fill-opacity="1"></path></g></g><g><g transform="matrix(1,0,0,1,100.58160400390625,373.66668701171875)"><path transform="matrix(0.017,0,0,-0.017,0,0)" d="M555 243L555 299L51 299L51 243Z" stroke="rgb(0,0,0)" stroke-opacity="1" stroke-width="8" fill="rgb(0,0,0)" fill-opacity="1"></path></g></g><g><g transform="matrix(1,0,0,1,114.26214599609375,373.66668701171875)"><path transform="matrix(0.017,0,0,-0.017,0,0)" d="M63 278L63 281C118 423 114 402 279 408C237 307 190 180 187 71C183 -74 360 -4 411 59L411 65L397 75L397 74C374 56 347 33 318 33C198 33 313 370 326 412C371 413 431 411 476 420L476 463L108 463C81 448 56 310 48 278Z" stroke="rgb(0,0,0)" stroke-opacity="1" stroke-width="8" fill="rgb(0,0,0)" fill-opacity="1"></path></g></g></g></g><g><g><g><svg x="328.7413330078125" overflow="visible" y="187.02691650390625" height="27.994792938232422" width="8.49826431274414"><path d=" M 6.27 1.70 c 0.00 -0.06 -0.04 -0.08 -0.08 -0.08 c -0.03 0.00 -0.06 0.01 -0.08 0.02 c -2.55 1.34 -4.65 3.73 -4.65 9.40 v 0.60 h 1.53 v -0.60 c 0.00 -3.23 0.64 -7.03 3.31 -9.06 c 0.12 -0.09 0.13 -0.19 0.13 -0.28 z   M 1.44 11.64 v 4.72 h 1.53 v -4.72 z" style="fill:rgb(0,0,0);fill-opacity:1;stroke-width:1px;stroke:none;stroke-opacity:1;"></path><path d=" M 6.27 26.29 c 0.00 0.06 -0.04 0.08 -0.08 0.08 c -0.03 0.00 -0.06 -0.01 -0.08 -0.02 c -2.55 -1.34 -4.65 -3.73 -4.65 -9.40 v -0.60 h 1.53 v 0.60 c 0.00 3.23 0.64 7.03 3.31 9.06 c 0.12 0.09 0.13 0.19 0.13 0.28 z" style="fill:rgb(0,0,0);fill-opacity:1;stroke-width:1px;stroke:none;stroke-opacity:1;"></path></svg></g><g><g transform="matrix(1,0,0,1,335.546875,204.4696044921875)"><path transform="matrix(0.017,0,0,-0.017,0,0)" d="M1060 53C1056 48 1050 45 1043 45C984 45 943 208 933 249C908 349 878 486 878 597C878 631 880 662 887 690L879 696C838 686 801 669 767 648C763 458 635 330 539 194C494 283 447 371 396 458C349 539 297 619 266 704C229 694 196 676 170 652C186 618 193 559 193 489C193 281 127 -22 15 -31C28 -40 42 -44 56 -44C105 -44 142 -22 169 12C215 70 236 421 237 517C314 391 451 193 484 62C487 50 488 38 488 27C488 14 487 2 485 -10C524 -3 556 19 580 46L580 52C580 243 727 356 790 513C802 419 812 324 836 229C859 138 882 52 955 -27L963 -31C1011 -31 1062 3 1060 53Z" stroke="rgb(0,0,0)" stroke-opacity="1" stroke-width="8" fill="rgb(0,0,0)" fill-opacity="1"></path></g></g><g><g><g><g><g transform="matrix(1,0,0,1,354.87841796875,198.31925048828126)"><path transform="matrix(0.0119,0,0,-0.0119,0,0)" d="M146 266C146 526 243 632 301 700L282 726C225 675 60 542 60 266C60 159 85 58 133 -32C168 -99 200 -138 282 -215L301 -194C255 -137 146 -15 146 266Z" stroke="rgb(0,0,0)" stroke-opacity="1" stroke-width="8" fill="rgb(0,0,0)" fill-opacity="1"></path></g></g><g><g transform="matrix(1,0,0,1,358.828125,198.31925048828126)"><path transform="matrix(0.0119,0,0,-0.0119,0,0)" d="M34 388L41 368L73 389C110 412 113 414 120 414C130 414 138 404 138 391C138 384 134 361 130 347L64 107C56 76 51 49 51 30C51 6 62 -9 81 -9C107 -9 143 12 241 85L231 103L205 86C176 67 153 56 144 56C137 56 131 66 131 76C131 86 133 95 138 116L215 420C219 437 221 448 221 456C221 473 212 482 196 482C174 482 137 461 62 408ZM228 712C199 712 170 679 170 645C170 620 185 604 209 604C240 604 264 633 264 671C264 695 249 712 228 712Z" stroke="rgb(0,0,0)" stroke-opacity="1" stroke-width="8" fill="rgb(0,0,0)" fill-opacity="1"></path></g></g><g><g transform="matrix(1,0,0,1,362.126708984375,198.31925048828126)"><path transform="matrix(0.0119,0,0,-0.0119,0,0)" d="M51 726L32 700C87 636 187 526 187 266C187 -10 83 -131 32 -194L51 -215C104 -165 273 -23 273 265C273 542 108 675 51 726Z" stroke="rgb(0,0,0)" stroke-opacity="1" stroke-width="8" fill="rgb(0,0,0)" fill-opacity="1"></path></g></g></g></g></g><g><g transform="matrix(1,0,0,1,367.092041015625,204.4696044921875)"><path transform="matrix(0.017,0,0,-0.017,0,0)" d="M204 123C177 114 159 108 106 93C99 17 74 -48 16 -144L30 -155L71 -136C152 -31 190 32 218 109Z" stroke="rgb(0,0,0)" stroke-opacity="1" stroke-width="8" fill="rgb(0,0,0)" fill-opacity="1"></path></g></g><g><g transform="matrix(1,0,0,1,374.72216796875,204.4696044921875)"><path transform="matrix(0.017,0,0,-0.017,0,0)" d="M237 -16C473 -16 572 316 576 504C578 618 546 702 419 702C159 702 72 412 69 199C67 80 101 -16 237 -16ZM401 676C536 676 506 491 485 381L169 381C194 485 272 676 401 676ZM253 13C102 13 147 261 163 349L479 349C454 237 396 13 253 13Z" stroke="rgb(0,0,0)" stroke-opacity="1" stroke-width="8" fill="rgb(0,0,0)" fill-opacity="1"></path></g></g><g><g><g><g><g transform="matrix(1,0,0,1,386.1197509765625,198.1803955078125)"><path transform="matrix(0.0119,0,0,-0.0119,0,0)" d="M146 266C146 526 243 632 301 700L282 726C225 675 60 542 60 266C60 159 85 58 133 -32C168 -99 200 -138 282 -215L301 -194C255 -137 146 -15 146 266Z" stroke="rgb(0,0,0)" stroke-opacity="1" stroke-width="8" fill="rgb(0,0,0)" fill-opacity="1"></path></g></g><g><g transform="matrix(1,0,0,1,390.0694580078125,198.1803955078125)"><path transform="matrix(0.0119,0,0,-0.0119,0,0)" d="M34 388L41 368L73 389C110 412 113 414 120 414C130 414 138 404 138 391C138 384 134 361 130 347L64 107C56 76 51 49 51 30C51 6 62 -9 81 -9C107 -9 143 12 241 85L231 103L205 86C176 67 153 56 144 56C137 56 131 66 131 76C131 86 133 95 138 116L215 420C219 437 221 448 221 456C221 473 212 482 196 482C174 482 137 461 62 408ZM228 712C199 712 170 679 170 645C170 620 185 604 209 604C240 604 264 633 264 671C264 695 249 712 228 712Z" stroke="rgb(0,0,0)" stroke-opacity="1" stroke-width="8" fill="rgb(0,0,0)" fill-opacity="1"></path></g></g><g><g transform="matrix(1,0,0,1,393.3680419921875,198.1803955078125)"><path transform="matrix(0.0119,0,0,-0.0119,0,0)" d="M51 726L32 700C87 636 187 526 187 266C187 -10 83 -131 32 -194L51 -215C104 -165 273 -23 273 265C273 542 108 675 51 726Z" stroke="rgb(0,0,0)" stroke-opacity="1" stroke-width="8" fill="rgb(0,0,0)" fill-opacity="1"></path></g></g></g></g><g><g><g><g transform="matrix(1,0,0,1,385.6510009765625,209.6821044921875)"><path transform="matrix(0.0119,0,0,-0.0119,0,0)" d="M125 390L69 107C68 99 56 61 56 31C56 6 67 -9 86 -9C121 -9 156 11 234 74L265 99L255 117L210 86C181 66 161 56 150 56C141 56 136 64 136 76C136 102 150 183 179 328L192 390L299 390L310 440C272 436 238 434 200 434C216 528 227 577 245 631L234 646C214 634 187 622 156 610L131 440C87 419 61 408 43 403L41 390ZM887 243L887 299L383 299L383 243ZM1000 278L1000 281C1055 423 1051 402 1216 408C1174 307 1127 180 1124 71C1120 -74 1297 -4 1348 59L1348 65L1334 75L1334 74C1311 56 1284 33 1255 33C1135 33 1250 370 1263 412C1308 413 1368 411 1413 420L1413 463L1045 463C1018 448 993 310 985 278Z" stroke="rgb(0,0,0)" stroke-opacity="1" stroke-width="8" fill="rgb(0,0,0)" fill-opacity="1"></path></g></g></g></g></g><g><g transform="matrix(1,0,0,1,403.9930419921875,204.4696044921875)"><path transform="matrix(0.017,0,0,-0.017,0,0)" d="M204 123C177 114 159 108 106 93C99 17 74 -48 16 -144L30 -155L71 -136C152 -31 190 32 218 109Z" stroke="rgb(0,0,0)" stroke-opacity="1" stroke-width="8" fill="rgb(0,0,0)" fill-opacity="1"></path></g></g><g><g><g><g><text x="411.623291015625" y="191.3585205078125" style="white-space:pre;stroke:none;fill:rgb(0,0,0);fill-opacity:1;font-size:15px;font-family:&quot;Times New Roman&quot;, Times, serif;font-weight:400;font-style:normal;dominant-baseline:text-before-edge;text-decoration:none solid rgb(0, 0, 0);">mean-field</text></g></g></g></g><g><svg x="474.904541015625" overflow="visible" y="187.02691650390625" height="27.994792938232422" width="8.49826431274414"><path d=" M 1.75 1.70 c 0.00 -0.06 0.04 -0.08 0.08 -0.08 c 0.03 0.00 0.06 0.01 0.08 0.02 c 2.55 1.34 4.65 3.73 4.65 9.40 v 0.60 h -1.53 v -0.60 c 0.00 -3.23 -0.64 -7.03 -3.31 -9.06 c -0.12 -0.09 -0.13 -0.19 -0.13 -0.28 z  M 6.58 11.64 v 4.72 h -1.53 v -4.72 z" style="fill:rgb(0,0,0);fill-opacity:1;stroke-width:1px;stroke:none;stroke-opacity:1;"></path><path d=" M 1.75 26.29 c 0.00 0.06 0.04 0.08 0.08 0.08 c 0.03 0.00 0.06 -0.01 0.08 -0.02 c 2.55 -1.34 4.65 -3.73 4.65 -9.40 v -0.60 h -1.53 v 0.60 c 0.00 3.23 -0.64 7.03 -3.31 9.06 c -0.12 0.09 -0.13 0.19 -0.13 0.28 z" style="fill:rgb(0,0,0);fill-opacity:1;stroke-width:1px;stroke:none;stroke-opacity:1;"></path></svg></g></g></g><g><g><g><svg x="328.7413330078125" overflow="visible" y="149.0234375" height="27.994792938232422" width="8.49826431274414"><path d=" M 6.27 1.70 c 0.00 -0.06 -0.04 -0.08 -0.08 -0.08 c -0.03 0.00 -0.06 0.01 -0.08 0.02 c -2.55 1.34 -4.65 3.73 -4.65 9.40 v 0.60 h 1.53 v -0.60 c 0.00 -3.23 0.64 -7.03 3.31 -9.06 c 0.12 -0.09 0.13 -0.19 0.13 -0.28 z   M 1.44 11.64 v 4.72 h 1.53 v -4.72 z" style="fill:rgb(0,0,0);fill-opacity:1;stroke-width:1px;stroke:none;stroke-opacity:1;"></path><path d=" M 6.27 26.29 c 0.00 0.06 -0.04 0.08 -0.08 0.08 c -0.03 0.00 -0.06 -0.01 -0.08 -0.02 c -2.55 -1.34 -4.65 -3.73 -4.65 -9.40 v -0.60 h 1.53 v 0.60 c 0.00 3.23 0.64 7.03 3.31 9.06 c 0.12 0.09 0.13 0.19 0.13 0.28 z" style="fill:rgb(0,0,0);fill-opacity:1;stroke-width:1px;stroke:none;stroke-opacity:1;"></path></svg></g><g><g transform="matrix(1,0,0,1,335.546875,166.46612548828125)"><path transform="matrix(0.017,0,0,-0.017,0,0)" d="M1060 53C1056 48 1050 45 1043 45C984 45 943 208 933 249C908 349 878 486 878 597C878 631 880 662 887 690L879 696C838 686 801 669 767 648C763 458 635 330 539 194C494 283 447 371 396 458C349 539 297 619 266 704C229 694 196 676 170 652C186 618 193 559 193 489C193 281 127 -22 15 -31C28 -40 42 -44 56 -44C105 -44 142 -22 169 12C215 70 236 421 237 517C314 391 451 193 484 62C487 50 488 38 488 27C488 14 487 2 485 -10C524 -3 556 19 580 46L580 52C580 243 727 356 790 513C802 419 812 324 836 229C859 138 882 52 955 -27L963 -31C1011 -31 1062 3 1060 53Z" stroke="rgb(0,0,0)" stroke-opacity="1" stroke-width="8" fill="rgb(0,0,0)" fill-opacity="1"></path></g></g><g><g><g><g><g transform="matrix(1,0,0,1,354.87841796875,160.315771484375)"><path transform="matrix(0.0119,0,0,-0.0119,0,0)" d="M146 266C146 526 243 632 301 700L282 726C225 675 60 542 60 266C60 159 85 58 133 -32C168 -99 200 -138 282 -215L301 -194C255 -137 146 -15 146 266Z" stroke="rgb(0,0,0)" stroke-opacity="1" stroke-width="8" fill="rgb(0,0,0)" fill-opacity="1"></path></g></g><g><g transform="matrix(1,0,0,1,358.828125,160.315771484375)"><path transform="matrix(0.0119,0,0,-0.0119,0,0)" d="M34 388L41 368L73 389C110 412 113 414 120 414C130 414 138 404 138 391C138 384 134 361 130 347L64 107C56 76 51 49 51 30C51 6 62 -9 81 -9C107 -9 143 12 241 85L231 103L205 86C176 67 153 56 144 56C137 56 131 66 131 76C131 86 133 95 138 116L215 420C219 437 221 448 221 456C221 473 212 482 196 482C174 482 137 461 62 408ZM228 712C199 712 170 679 170 645C170 620 185 604 209 604C240 604 264 633 264 671C264 695 249 712 228 712Z" stroke="rgb(0,0,0)" stroke-opacity="1" stroke-width="8" fill="rgb(0,0,0)" fill-opacity="1"></path></g></g><g><g transform="matrix(1,0,0,1,362.126708984375,160.315771484375)"><path transform="matrix(0.0119,0,0,-0.0119,0,0)" d="M51 726L32 700C87 636 187 526 187 266C187 -10 83 -131 32 -194L51 -215C104 -165 273 -23 273 265C273 542 108 675 51 726Z" stroke="rgb(0,0,0)" stroke-opacity="1" stroke-width="8" fill="rgb(0,0,0)" fill-opacity="1"></path></g></g></g></g></g><g><g transform="matrix(1,0,0,1,367.092041015625,166.46612548828125)"><path transform="matrix(0.017,0,0,-0.017,0,0)" d="M204 123C177 114 159 108 106 93C99 17 74 -48 16 -144L30 -155L71 -136C152 -31 190 32 218 109Z" stroke="rgb(0,0,0)" stroke-opacity="1" stroke-width="8" fill="rgb(0,0,0)" fill-opacity="1"></path></g></g><g><g transform="matrix(1,0,0,1,374.72216796875,166.46612548828125)"><path transform="matrix(0.017,0,0,-0.017,0,0)" d="M237 -16C473 -16 572 316 576 504C578 618 546 702 419 702C159 702 72 412 69 199C67 80 101 -16 237 -16ZM401 676C536 676 506 491 485 381L169 381C194 485 272 676 401 676ZM253 13C102 13 147 261 163 349L479 349C454 237 396 13 253 13Z" stroke="rgb(0,0,0)" stroke-opacity="1" stroke-width="8" fill="rgb(0,0,0)" fill-opacity="1"></path></g></g><g><g><g><g><g transform="matrix(1,0,0,1,386.1197509765625,160.17691650390626)"><path transform="matrix(0.0119,0,0,-0.0119,0,0)" d="M146 266C146 526 243 632 301 700L282 726C225 675 60 542 60 266C60 159 85 58 133 -32C168 -99 200 -138 282 -215L301 -194C255 -137 146 -15 146 266Z" stroke="rgb(0,0,0)" stroke-opacity="1" stroke-width="8" fill="rgb(0,0,0)" fill-opacity="1"></path></g></g><g><g transform="matrix(1,0,0,1,390.0694580078125,160.17691650390626)"><path transform="matrix(0.0119,0,0,-0.0119,0,0)" d="M34 388L41 368L73 389C110 412 113 414 120 414C130 414 138 404 138 391C138 384 134 361 130 347L64 107C56 76 51 49 51 30C51 6 62 -9 81 -9C107 -9 143 12 241 85L231 103L205 86C176 67 153 56 144 56C137 56 131 66 131 76C131 86 133 95 138 116L215 420C219 437 221 448 221 456C221 473 212 482 196 482C174 482 137 461 62 408ZM228 712C199 712 170 679 170 645C170 620 185 604 209 604C240 604 264 633 264 671C264 695 249 712 228 712Z" stroke="rgb(0,0,0)" stroke-opacity="1" stroke-width="8" fill="rgb(0,0,0)" fill-opacity="1"></path></g></g><g><g transform="matrix(1,0,0,1,393.3680419921875,160.17691650390626)"><path transform="matrix(0.0119,0,0,-0.0119,0,0)" d="M51 726L32 700C87 636 187 526 187 266C187 -10 83 -131 32 -194L51 -215C104 -165 273 -23 273 265C273 542 108 675 51 726Z" stroke="rgb(0,0,0)" stroke-opacity="1" stroke-width="8" fill="rgb(0,0,0)" fill-opacity="1"></path></g></g></g></g><g><g><g><g transform="matrix(1,0,0,1,385.6510009765625,171.67862548828126)"><path transform="matrix(0.0119,0,0,-0.0119,0,0)" d="M125 390L69 107C68 99 56 61 56 31C56 6 67 -9 86 -9C121 -9 156 11 234 74L265 99L255 117L210 86C181 66 161 56 150 56C141 56 136 64 136 76C136 102 150 183 179 328L192 390L299 390L310 440C272 436 238 434 200 434C216 528 227 577 245 631L234 646C214 634 187 622 156 610L131 440C87 419 61 408 43 403L41 390ZM887 243L887 299L383 299L383 243ZM1000 278L1000 281C1055 423 1051 402 1216 408C1174 307 1127 180 1124 71C1120 -74 1297 -4 1348 59L1348 65L1334 75L1334 74C1311 56 1284 33 1255 33C1135 33 1250 370 1263 412C1308 413 1368 411 1413 420L1413 463L1045 463C1018 448 993 310 985 278Z" stroke="rgb(0,0,0)" stroke-opacity="1" stroke-width="8" fill="rgb(0,0,0)" fill-opacity="1"></path></g></g></g></g></g><g><g transform="matrix(1,0,0,1,403.9930419921875,166.46612548828125)"><path transform="matrix(0.017,0,0,-0.017,0,0)" d="M204 123C177 114 159 108 106 93C99 17 74 -48 16 -144L30 -155L71 -136C152 -31 190 32 218 109Z" stroke="rgb(0,0,0)" stroke-opacity="1" stroke-width="8" fill="rgb(0,0,0)" fill-opacity="1"></path></g></g><g><g><g><g><text x="411.623291015625" y="153.35504150390625" style="white-space:pre;stroke:none;fill:rgb(0,0,0);fill-opacity:1;font-size:15px;font-family:&quot;Times New Roman&quot;, Times, serif;font-weight:400;font-style:normal;dominant-baseline:text-before-edge;text-decoration:none solid rgb(0, 0, 0);">Markovian</text></g></g></g></g><g><svg x="475.74658203125" overflow="visible" y="149.0234375" height="27.994792938232422" width="8.49826431274414"><path d=" M 1.75 1.70 c 0.00 -0.06 0.04 -0.08 0.08 -0.08 c 0.03 0.00 0.06 0.01 0.08 0.02 c 2.55 1.34 4.65 3.73 4.65 9.40 v 0.60 h -1.53 v -0.60 c 0.00 -3.23 -0.64 -7.03 -3.31 -9.06 c -0.12 -0.09 -0.13 -0.19 -0.13 -0.28 z  M 6.58 11.64 v 4.72 h -1.53 v -4.72 z" style="fill:rgb(0,0,0);fill-opacity:1;stroke-width:1px;stroke:none;stroke-opacity:1;"></path><path d=" M 1.75 26.29 c 0.00 0.06 0.04 0.08 0.08 0.08 c 0.03 0.00 0.06 -0.01 0.08 -0.02 c 2.55 -1.34 4.65 -3.73 4.65 -9.40 v -0.60 h -1.53 v 0.60 c 0.00 3.23 -0.64 7.03 -3.31 9.06 c -0.12 0.09 -0.13 0.19 -0.13 0.28 z" style="fill:rgb(0,0,0);fill-opacity:1;stroke-width:1px;stroke:none;stroke-opacity:1;"></path></svg></g></g></g><g><g><g><svg x="328.7413330078125" overflow="visible" y="111.0242919921875" height="26.99652862548828" width="8.49826431274414"><path d=" M 6.27 1.70 c 0.00 -0.06 -0.04 -0.08 -0.08 -0.08 c -0.03 0.00 -0.06 0.01 -0.08 0.02 c -2.55 1.34 -4.65 3.73 -4.65 9.40 v 0.60 h 1.53 v -0.60 c 0.00 -3.23 0.64 -7.03 3.31 -9.06 c 0.12 -0.09 0.13 -0.19 0.13 -0.28 z   M 1.44 11.64 v 3.72 h 1.53 v -3.72 z" style="fill:rgb(0,0,0);fill-opacity:1;stroke-width:1px;stroke:none;stroke-opacity:1;"></path><path d=" M 6.27 25.30 c 0.00 0.06 -0.04 0.08 -0.08 0.08 c -0.03 0.00 -0.06 -0.01 -0.08 -0.02 c -2.55 -1.34 -4.65 -3.73 -4.65 -9.40 v -0.60 h 1.53 v 0.60 c 0.00 3.23 0.64 7.03 3.31 9.06 c 0.12 0.09 0.13 0.19 0.13 0.28 z" style="fill:rgb(0,0,0);fill-opacity:1;stroke-width:1px;stroke:none;stroke-opacity:1;"></path></svg></g><g><g transform="matrix(1,0,0,1,335.546875,128.46701049804688)"><path transform="matrix(0.017,0,0,-0.017,0,0)" d="M1060 53C1056 48 1050 45 1043 45C984 45 943 208 933 249C908 349 878 486 878 597C878 631 880 662 887 690L879 696C838 686 801 669 767 648C763 458 635 330 539 194C494 283 447 371 396 458C349 539 297 619 266 704C229 694 196 676 170 652C186 618 193 559 193 489C193 281 127 -22 15 -31C28 -40 42 -44 56 -44C105 -44 142 -22 169 12C215 70 236 421 237 517C314 391 451 193 484 62C487 50 488 38 488 27C488 14 487 2 485 -10C524 -3 556 19 580 46L580 52C580 243 727 356 790 513C802 419 812 324 836 229C859 138 882 52 955 -27L963 -31C1011 -31 1062 3 1060 53Z" stroke="rgb(0,0,0)" stroke-opacity="1" stroke-width="8" fill="rgb(0,0,0)" fill-opacity="1"></path></g></g><g><g><g><g><g transform="matrix(1,0,0,1,354.87841796875,122.31665649414063)"><path transform="matrix(0.0119,0,0,-0.0119,0,0)" d="M146 266C146 526 243 632 301 700L282 726C225 675 60 542 60 266C60 159 85 58 133 -32C168 -99 200 -138 282 -215L301 -194C255 -137 146 -15 146 266Z" stroke="rgb(0,0,0)" stroke-opacity="1" stroke-width="8" fill="rgb(0,0,0)" fill-opacity="1"></path></g></g><g><g transform="matrix(1,0,0,1,358.828125,122.31665649414063)"><path transform="matrix(0.0119,0,0,-0.0119,0,0)" d="M34 388L41 368L73 389C110 412 113 414 120 414C130 414 138 404 138 391C138 384 134 361 130 347L64 107C56 76 51 49 51 30C51 6 62 -9 81 -9C107 -9 143 12 241 85L231 103L205 86C176 67 153 56 144 56C137 56 131 66 131 76C131 86 133 95 138 116L215 420C219 437 221 448 221 456C221 473 212 482 196 482C174 482 137 461 62 408ZM228 712C199 712 170 679 170 645C170 620 185 604 209 604C240 604 264 633 264 671C264 695 249 712 228 712Z" stroke="rgb(0,0,0)" stroke-opacity="1" stroke-width="8" fill="rgb(0,0,0)" fill-opacity="1"></path></g></g><g><g transform="matrix(1,0,0,1,362.126708984375,122.31665649414063)"><path transform="matrix(0.0119,0,0,-0.0119,0,0)" d="M51 726L32 700C87 636 187 526 187 266C187 -10 83 -131 32 -194L51 -215C104 -165 273 -23 273 265C273 542 108 675 51 726Z" stroke="rgb(0,0,0)" stroke-opacity="1" stroke-width="8" fill="rgb(0,0,0)" fill-opacity="1"></path></g></g></g></g></g><g><g transform="matrix(1,0,0,1,367.092041015625,128.46701049804688)"><path transform="matrix(0.017,0,0,-0.017,0,0)" d="M204 123C177 114 159 108 106 93C99 17 74 -48 16 -144L30 -155L71 -136C152 -31 190 32 218 109Z" stroke="rgb(0,0,0)" stroke-opacity="1" stroke-width="8" fill="rgb(0,0,0)" fill-opacity="1"></path></g></g><g><g transform="matrix(1,0,0,1,374.72216796875,128.46701049804688)"><path transform="matrix(0.017,0,0,-0.017,0,0)" d="M237 -16C473 -16 572 316 576 504C578 618 546 702 419 702C159 702 72 412 69 199C67 80 101 -16 237 -16ZM401 676C536 676 506 491 485 381L169 381C194 485 272 676 401 676ZM253 13C102 13 147 261 163 349L479 349C454 237 396 13 253 13Z" stroke="rgb(0,0,0)" stroke-opacity="1" stroke-width="8" fill="rgb(0,0,0)" fill-opacity="1"></path></g></g><g><g><g><g><g transform="matrix(1,0,0,1,386.1197509765625,122.17777099609376)"><path transform="matrix(0.0119,0,0,-0.0119,0,0)" d="M146 266C146 526 243 632 301 700L282 726C225 675 60 542 60 266C60 159 85 58 133 -32C168 -99 200 -138 282 -215L301 -194C255 -137 146 -15 146 266Z" stroke="rgb(0,0,0)" stroke-opacity="1" stroke-width="8" fill="rgb(0,0,0)" fill-opacity="1"></path></g></g><g><g transform="matrix(1,0,0,1,390.0694580078125,122.17777099609376)"><path transform="matrix(0.0119,0,0,-0.0119,0,0)" d="M34 388L41 368L73 389C110 412 113 414 120 414C130 414 138 404 138 391C138 384 134 361 130 347L64 107C56 76 51 49 51 30C51 6 62 -9 81 -9C107 -9 143 12 241 85L231 103L205 86C176 67 153 56 144 56C137 56 131 66 131 76C131 86 133 95 138 116L215 420C219 437 221 448 221 456C221 473 212 482 196 482C174 482 137 461 62 408ZM228 712C199 712 170 679 170 645C170 620 185 604 209 604C240 604 264 633 264 671C264 695 249 712 228 712Z" stroke="rgb(0,0,0)" stroke-opacity="1" stroke-width="8" fill="rgb(0,0,0)" fill-opacity="1"></path></g></g><g><g transform="matrix(1,0,0,1,393.3680419921875,122.17777099609376)"><path transform="matrix(0.0119,0,0,-0.0119,0,0)" d="M51 726L32 700C87 636 187 526 187 266C187 -10 83 -131 32 -194L51 -215C104 -165 273 -23 273 265C273 542 108 675 51 726Z" stroke="rgb(0,0,0)" stroke-opacity="1" stroke-width="8" fill="rgb(0,0,0)" fill-opacity="1"></path></g></g></g></g><g><g><g><g transform="matrix(1,0,0,1,385.6510009765625,132.67255249023438)"><path transform="matrix(0.0119,0,0,-0.0119,0,0)" d="M125 390L69 107C68 99 56 61 56 31C56 6 67 -9 86 -9C121 -9 156 11 234 74L265 99L255 117L210 86C181 66 161 56 150 56C141 56 136 64 136 76C136 102 150 183 179 328L192 390L299 390L310 440C272 436 238 434 200 434C216 528 227 577 245 631L234 646C214 634 187 622 156 610L131 440C87 419 61 408 43 403L41 390Z" stroke="rgb(0,0,0)" stroke-opacity="1" stroke-width="8" fill="rgb(0,0,0)" fill-opacity="1"></path></g></g></g></g></g><g><g transform="matrix(1,0,0,1,398.3333740234375,128.46701049804688)"><path transform="matrix(0.017,0,0,-0.017,0,0)" d="M204 123C177 114 159 108 106 93C99 17 74 -48 16 -144L30 -155L71 -136C152 -31 190 32 218 109Z" stroke="rgb(0,0,0)" stroke-opacity="1" stroke-width="8" fill="rgb(0,0,0)" fill-opacity="1"></path></g></g><g><g><g><g><text x="405.9635009765625" y="115.35589599609375" style="white-space:pre;stroke:none;fill:rgb(0,0,0);fill-opacity:1;font-size:15px;font-family:&quot;Times New Roman&quot;, Times, serif;font-weight:400;font-style:normal;dominant-baseline:text-before-edge;text-decoration:none solid rgb(0, 0, 0);">Markovian</text></g></g></g></g><g><svg x="470.0867919921875" overflow="visible" y="111.0242919921875" height="26.99652862548828" width="8.49826431274414"><path d=" M 1.75 1.70 c 0.00 -0.06 0.04 -0.08 0.08 -0.08 c 0.03 0.00 0.06 0.01 0.08 0.02 c 2.55 1.34 4.65 3.73 4.65 9.40 v 0.60 h -1.53 v -0.60 c 0.00 -3.23 -0.64 -7.03 -3.31 -9.06 c -0.12 -0.09 -0.13 -0.19 -0.13 -0.28 z  M 6.58 11.64 v 3.72 h -1.53 v -3.72 z" style="fill:rgb(0,0,0);fill-opacity:1;stroke-width:1px;stroke:none;stroke-opacity:1;"></path><path d=" M 1.75 25.30 c 0.00 0.06 0.04 0.08 0.08 0.08 c 0.03 0.00 0.06 -0.01 0.08 -0.02 c 2.55 -1.34 4.65 -3.73 4.65 -9.40 v -0.60 h -1.53 v 0.60 c 0.00 3.23 -0.64 7.03 -3.31 9.06 c -0.12 0.09 -0.13 0.19 -0.13 0.28 z" style="fill:rgb(0,0,0);fill-opacity:1;stroke-width:1px;stroke:none;stroke-opacity:1;"></path></svg></g></g></g><g><g><g><text x="502.5521240234375" y="130.99392700195312" style="white-space:pre;stroke:none;fill:rgb(0,0,0);fill-opacity:1;font-size:15px;font-family:&quot;Times New Roman&quot;, Times, serif;font-weight:400;font-style:normal;dominant-baseline:text-before-edge;text-decoration:none solid rgb(0, 0, 0);">backtrack</text></g></g></g><g><g><g><text x="502.5521240234375" y="169.665771484375" style="white-space:pre;stroke:none;fill:rgb(0,0,0);fill-opacity:1;font-size:15px;font-family:&quot;Times New Roman&quot;, Times, serif;font-weight:400;font-style:normal;dominant-baseline:text-before-edge;text-decoration:none solid rgb(0, 0, 0);">mixing</text></g></g></g><g><g><g><text x="502.5521240234375" y="210.334228515625" style="white-space:pre;stroke:none;fill:rgb(0,0,0);fill-opacity:1;font-size:15px;font-family:&quot;Times New Roman&quot;, Times, serif;font-weight:400;font-style:normal;dominant-baseline:text-before-edge;text-decoration:none solid rgb(0, 0, 0);">gradient progress</text></g></g></g><g><g><g><text x="502.5521240234375" y="252.66058349609375" style="white-space:pre;stroke:none;fill:rgb(0,0,0);fill-opacity:1;font-size:15px;font-family:&quot;Times New Roman&quot;, Times, serif;font-weight:400;font-style:normal;dominant-baseline:text-before-edge;text-decoration:none solid rgb(0, 0, 0);">client drift</text></g></g></g><g><g><g><text x="502.5521240234375" y="291.662353515625" style="white-space:pre;stroke:none;fill:rgb(0,0,0);fill-opacity:1;font-size:15px;font-family:&quot;Times New Roman&quot;, Times, serif;font-weight:400;font-style:normal;dominant-baseline:text-before-edge;text-decoration:none solid rgb(0, 0, 0);">gradient heterogenity</text></g></g></g><g><g><g><text x="502.5521240234375" y="328.66754150390625" style="white-space:pre;stroke:none;fill:rgb(0,0,0);fill-opacity:1;font-size:15px;font-family:&quot;Times New Roman&quot;, Times, serif;font-weight:400;font-style:normal;dominant-baseline:text-before-edge;text-decoration:none solid rgb(0, 0, 0);">descent direction</text></g></g></g></svg>
</svg>
